# xmcd CD database file
#
# Track frame offsets:
#	150
#	12690
#	25536
#	38159
#	51006
#	64326
#	85559
#	99297
#	115738
#	128167
#	146893
#	165869
#	178631
#
# Disc length: 2572 seconds
#
# Revision: 0
# Processed by: cddbd v1.5.2PL0 Copyright (c) Steve Scherf et al.
# Submitted via: CDex 1.70beta2
#
DISCID=9f0a0a0d
DTITLE=Swingtime '55 - Walking between the Raindrops
DYEAR=351
DGENRE=Jazz
TTITLE0=I got Rhythm
TTITLE1=On a clear day
TTITLE2=Summertime
TTITLE3=Walk between the Raindrops
TTITLE4=Take five
TTITLE5=Teach me tonight
TTITLE6=Please don't talk about me
TTITLE7=St Thomas
TTITLE8=Love for sale
TTITLE9=Unforgettable
TTITLE10=Chattanooga Choo Choo
TTITLE11=I'm Oldfashioned
TTITLE12=Cluxen Ain't what he used to be
EXTD=YEAR: 351
EXTT0=
EXTT1=
EXTT2=
EXTT3=
EXTT4=
EXTT5=
EXTT6=
EXTT7=
EXTT8=
EXTT9=
EXTT10=
EXTT11=
EXTT12=
PLAYORDER=
